# xmcd
#
# Track frame offsets:
#	150
#	15722
#	31172
#	46207
#	62037
#	78957
#	96427
#	110012
#	126717
#	142092
#
# Disc length: 2127 seconds
#
# Revision: 1
# Processed by: cddbd v1.4b41PL1 Copyright (c) Steve Scherf et al.
# Submitted via: audiograbber 1.80
#
DISCID=8c084d0a
DTITLE=Neal McCoy - 24-7-365
DYEAR=1900
DGENRE=
TTITLE0=Count On Me
TTITLE1=Forever Works For Me
TTITLE2=My Life Began With You
TTITLE3=What Would Love Say
TTITLE4=Beatin' It In
TTITLE5=Every Man For Himself
TTITLE6=Disconnected
TTITLE7=Love That Strong
TTITLE8=24-7-365
TTITLE9=The Key To Your Heart
EXTD=
EXTT0=
EXTT1=
EXTT2=
EXTT3=
EXTT4=
EXTT5=
EXTT6=
EXTT7=
EXTT8=
EXTT9=
PLAYORDER=
